<svg xml:space="preserve" xmlns="http://www.w3.org/2000/svg" xmlns:xlink="http://www.w3.org/1999/xlink">
 <defs>
  <path
    id="boat"
    stroke="blue"
    stroke-width="1"
    fill="none"
    d="M -20 40 l 40 0 C 23 10 20 -15 0 -40 M -20 40 C -23 10 -20 -15 0 -40"
    >
  </path>
  <g id="windIndicator">
    <path
        stroke="red"
        stroke-width="1"
        fill="red"
        d="M -3 -15 L 0 -25 L 3 -15 Z"
    >
    </path>
    <path
        stroke="black"
        stroke-width="1"
        fill="none"
        d="M 0 15 l 0 -30"
    >
    </path>
    <path
        stroke="red"
        stroke-width="1"
        fill="red"
        d="M -3 25 L -3 20 L 0 15 L 3 20 L 3 25 Z"
    >
    </path>
  </g>
  <path d=" M0.01745240643728351,-0.9998476951563913L0.01570716579355516,-0.8998629256407522 M0.03489949670250097,-0.9993908270190958L0.03140954703225087,-0.8994517443171862 M0.05233595624294383,-0.9986295347545738L0.04710236061864945,-0.8987665812791165 M0.0697564737441253,-0.9975640502598242L0.06278082636971277,-0.8978076452338418 M0.10452846326765346,-0.9945218953682733L0.09407561694088812,-0.895069705831446 M0.12186934340514748,-0.992546151641322L0.10968240906463272,-0.8932915364771898 M0.13917310096006544,-0.9902680687415704L0.12525579086405889,-0.8912412618674134 M0.15643446504023087,-0.9876883405951378L0.1407910185362078,-0.888919506535624 M0.1908089953765448,-0.981627183447664L0.17172809583889032,-0.8834644651028976 M0.20791169081775931,-0.9781476007338057L0.1871205217359834,-0.8803328406604252 M0.22495105434386498,-0.9743700647852352L0.2024559489094785,-0.8769330583067118 M0.24192189559966773,-0.9702957262759965L0.21772970603970096,-0.8732661536483969 M0.27563735581699916,-0.9612616959383189L0.24807362023529925,-0.865135526344487 M0.2923717047227367,-0.9563047559630355L0.26313453425046307,-0.860674280366732 M0.3090169943749474,-0.9510565162951535L0.2781152949374527,-0.8559508646656382 M0.3255681544571567,-0.9455185755993168L0.29301133901144105,-0.8509667180393852 M0.35836794954530027,-0.9335804264972017L0.32253115459077025,-0.8402223838474816 M0.374606593415912,-0.9271838545667874L0.3371459340743208,-0.8344654691101087 M0.3907311284892737,-0.9205048534524404L0.3516580156403464,-0.8284543681071963 M0.40673664307580015,-0.9135454576426009L0.36606297876822014,-0.8221909118783408 M0.4383711467890774,-0.898794046299167L0.3945340321101697,-0.8089146416692503 M0.45399049973954675,-0.8910065241883679L0.4085914497655921,-0.8019058717695311 M0.4694715627858908,-0.882947592858927L0.4225244065073017,-0.7946528335730343 M0.48480962024633706,-0.8746197071393957L0.43632865822170336,-0.7871577364254562 M0.5150380749100542,-0.8571673007021123L0.46353426741904874,-0.7714505706319011 M0.5299192642332049,-0.848048096156426L0.47692733780988444,-0.7632432865407833 M0.544639035015027,-0.838670567945424L0.49017513151352426,-0.7548035111508816 M0.5591929034707468,-0.8290375725550417L0.5032736131236721,-0.7461338152995376 M0.5877852522924731,-0.8090169943749475L0.5290067270632258,-0.7281152949374528 M0.6018150231520483,-0.7986355100472928L0.5416335208368435,-0.7187719590425635 M0.6156614753256583,-0.7880107536067219L0.5540953277930925,-0.7092096782460497 M0.6293203910498375,-0.7771459614569709L0.5663883519448538,-0.6994313653112738 M0.6560590289905073,-0.754709580222772L0.5904531260914566,-0.6792386222004948 M0.6691306063588582,-0.7431448254773942L0.6022175457229725,-0.6688303429296548 M0.6819983600624985,-0.7313537016191705L0.6137985240562487,-0.6582183314572534 M0.6946583704589973,-0.7193398003386512L0.6251925334130976,-0.6474058203047861 M0.7193398003386511,-0.6946583704589974L0.647405820304786,-0.6251925334130977 M0.7313537016191705,-0.6819983600624985L0.6582183314572534,-0.6137985240562487 M0.7431448254773942,-0.6691306063588582L0.6688303429296548,-0.6022175457229725 M0.7547095802227719,-0.6560590289905074L0.6792386222004947,-0.5904531260914566 M0.7771459614569708,-0.6293203910498375L0.6994313653112737,-0.5663883519448538 M0.7880107536067219,-0.6156614753256583L0.7092096782460497,-0.5540953277930925 M0.7986355100472928,-0.6018150231520483L0.7187719590425635,-0.5416335208368435 M0.8090169943749475,-0.5877852522924731L0.7281152949374528,-0.5290067270632258 M0.8290375725550417,-0.5591929034707468L0.7461338152995376,-0.5032736131236721 M0.8386705679454239,-0.5446390350150272L0.7548035111508815,-0.4901751315135245 M0.8480480961564261,-0.5299192642332049L0.7632432865407834,-0.47692733780988444 M0.8571673007021122,-0.5150380749100544L0.771450570631901,-0.46353426741904896 M0.8746197071393957,-0.4848096202463371L0.7871577364254562,-0.4363286582217034 M0.8829475928589269,-0.46947156278589086L0.7946528335730342,-0.4225244065073018 M0.8910065241883678,-0.45399049973954686L0.801905871769531,-0.4085914497655922 M0.898794046299167,-0.43837114678907746L0.8089146416692503,-0.39453403211016974 M0.9135454576426009,-0.4067366430758004L0.8221909118783408,-0.36606297876822036 M0.9205048534524404,-0.3907311284892737L0.8284543681071963,-0.3516580156403464 M0.9271838545667873,-0.3746065934159122L0.8344654691101085,-0.337145934074321 M0.9335804264972017,-0.35836794954530016L0.8402223838474816,-0.32253115459077014 M0.9455185755993167,-0.32556815445715676L0.8509667180393851,-0.2930113390114411 M0.9510565162951535,-0.30901699437494745L0.8559508646656382,-0.27811529493745274 M0.9563047559630354,-0.29237170472273677L0.8606742803667319,-0.2631345342504631 M0.9612616959383189,-0.27563735581699916L0.865135526344487,-0.24807362023529925 M0.9702957262759965,-0.24192189559966767L0.8732661536483969,-0.2177297060397009 M0.9743700647852352,-0.22495105434386514L0.8769330583067118,-0.20245594890947863 M0.9781476007338057,-0.20791169081775923L0.8803328406604252,-0.18712052173598331 M0.981627183447664,-0.19080899537654492L0.8834644651028976,-0.17172809583889043 M0.9876883405951378,-0.15643446504023092L0.888919506535624,-0.14079101853620785 M0.9902680687415704,-0.13917310096006547L0.8912412618674134,-0.1252557908640589 M0.992546151641322,-0.12186934340514749L0.8932915364771898,-0.10968240906463274 M0.9945218953682733,-0.10452846326765346L0.895069705831446,-0.09407561694088812 M0.9975640502598242,-0.06975647374412523L0.8978076452338418,-0.06278082636971272 M0.9986295347545738,-0.052335956242943966L0.8987665812791165,-0.04710236061864957 M0.9993908270190958,-0.03489949670250108L0.8994517443171862,-0.031409547032250976 M0.9998476951563913,-0.0174524064372836L0.8998629256407522,-0.015707165793555238 M0.9998476951563913,0.017452406437283477L0.8998629256407522,0.01570716579355513 M0.9993908270190958,0.03489949670250073L0.8994517443171862,0.03140954703225066 M0.9986295347545738,0.05233595624294384L0.8987665812791165,0.04710236061864946 M0.9975640502598242,0.06975647374412533L0.8978076452338418,0.0627808263697128 M0.9945218953682734,0.10452846326765333L0.8950697058314461,0.09407561694088801 M0.9925461516413221,0.12186934340514737L0.89329153647719,0.10968240906463263 M0.9902680687415704,0.13917310096006513L0.8912412618674134,0.12525579086405864 M0.9876883405951377,0.15643446504023104L0.8889195065356239,0.14079101853620793 M0.981627183447664,0.1908089953765448L0.8834644651028976,0.17172809583889032 M0.9781476007338057,0.20791169081775912L0.8803328406604252,0.1871205217359832 M0.9743700647852352,0.2249510543438648L0.8769330583067118,0.20245594890947832 M0.9702957262759965,0.24192189559966756L0.8732661536483969,0.21772970603970082 M0.9612616959383189,0.27563735581699905L0.865135526344487,0.24807362023529916 M0.9563047559630355,0.29237170472273666L0.860674280366732,0.263134534250463 M0.9510565162951536,0.30901699437494734L0.8559508646656383,0.27811529493745263 M0.9455185755993168,0.3255681544571564L0.8509667180393852,0.2930113390114408 M0.9335804264972017,0.35836794954530027L0.8402223838474816,0.32253115459077025 M0.9271838545667874,0.37460659341591207L0.8344654691101087,0.33714593407432086 M0.9205048534524404,0.3907311284892736L0.8284543681071963,0.35165801564034627 M0.913545457642601,0.4067366430758001L0.8221909118783409,0.3660629787682201 M0.8987940462991669,0.4383711467890775L0.8089146416692502,0.3945340321101698 M0.8910065241883679,0.45399049973954675L0.8019058717695311,0.4085914497655921 M0.8829475928589271,0.46947156278589053L0.7946528335730344,0.4225244065073015 M0.8746197071393959,0.484809620246337L0.7871577364254563,0.4363286582217033 M0.8571673007021123,0.5150380749100543L0.7714505706319011,0.46353426741904885 M0.8480480961564261,0.5299192642332048L0.7632432865407834,0.47692733780988433 M0.838670567945424,0.5446390350150271L0.7548035111508816,0.4901751315135244 M0.8290375725550417,0.5591929034707467L0.7461338152995376,0.503273613123672 M0.8090169943749475,0.587785252292473L0.7281152949374528,0.5290067270632257 M0.7986355100472927,0.6018150231520484L0.7187719590425634,0.5416335208368436 M0.788010753606722,0.6156614753256583L0.7092096782460499,0.5540953277930925 M0.777145961456971,0.6293203910498373L0.6994313653112739,0.5663883519448536 M0.7547095802227721,0.6560590289905072L0.6792386222004949,0.5904531260914565 M0.7431448254773945,0.6691306063588579L0.668830342929655,0.6022175457229721 M0.7313537016191706,0.6819983600624984L0.6582183314572535,0.6137985240562486 M0.7193398003386511,0.6946583704589974L0.647405820304786,0.6251925334130977 M0.6946583704589975,0.719339800338651L0.6251925334130978,0.6474058203047859 M0.6819983600624986,0.7313537016191705L0.6137985240562488,0.6582183314572534 M0.669130606358858,0.7431448254773944L0.6022175457229723,0.6688303429296549 M0.6560590289905073,0.754709580222772L0.5904531260914566,0.6792386222004948 M0.6293203910498374,0.7771459614569709L0.5663883519448537,0.6994313653112738 M0.6156614753256584,0.7880107536067219L0.5540953277930926,0.7092096782460497 M0.6018150231520486,0.7986355100472926L0.5416335208368438,0.7187719590425634 M0.5877852522924732,0.8090169943749473L0.5290067270632259,0.7281152949374526 M0.5591929034707469,0.8290375725550416L0.5032736131236722,0.7461338152995375 M0.5446390350150273,0.8386705679454239L0.4901751315135246,0.7548035111508815 M0.5299192642332049,0.848048096156426L0.47692733780988444,0.7632432865407833 M0.5150380749100544,0.8571673007021122L0.46353426741904896,0.771450570631901 M0.48480962024633717,0.8746197071393957L0.43632865822170347,0.7871577364254562 M0.4694715627858907,0.882947592858927L0.4225244065073016,0.7946528335730343 M0.45399049973954686,0.8910065241883678L0.4085914497655922,0.801905871769531 M0.4383711467890777,0.8987940462991668L0.3945340321101699,0.8089146416692502 M0.40673664307580004,0.913545457642601L0.36606297876822,0.8221909118783409 M0.39073112848927377,0.9205048534524404L0.3516580156403464,0.8284543681071963 M0.37460659341591224,0.9271838545667873L0.33714593407432103,0.8344654691101085 M0.35836794954530066,0.9335804264972016L0.3225311545907706,0.8402223838474815 M0.3255681544571566,0.9455185755993168L0.29301133901144094,0.8509667180393852 M0.3090169943749475,0.9510565162951535L0.27811529493745274,0.8559508646656382 M0.29237170472273705,0.9563047559630354L0.26313453425046335,0.8606742803667319 M0.2756373558169992,0.9612616959383189L0.2480736202352993,0.865135526344487 M0.24192189559966773,0.9702957262759965L0.21772970603970096,0.8732661536483969 M0.2249510543438652,0.9743700647852351L0.20245594890947868,0.8769330583067116 M0.20791169081775931,0.9781476007338057L0.1871205217359834,0.8803328406604252 M0.19080899537654497,0.981627183447664L0.17172809583889048,0.8834644651028976 M0.15643446504023098,0.9876883405951377L0.14079101853620787,0.8889195065356239 M0.13917310096006533,0.9902680687415704L0.1252557908640588,0.8912412618674134 M0.12186934340514755,0.992546151641322L0.1096824090646328,0.8932915364771898 M0.10452846326765373,0.9945218953682733L0.09407561694088837,0.895069705831446 M0.06975647374412552,0.9975640502598242L0.06278082636971298,0.8978076452338418 M0.05233595624294425,0.9986295347545738L0.04710236061864983,0.8987665812791165 M0.03489949670250114,0.9993908270190958L0.03140954703225103,0.8994517443171862 M0.01745240643728344,0.9998476951563913L0.015707165793555095,0.8998629256407522 M-0.017452406437283192,0.9998476951563913L-0.015707165793554873,0.8998629256407522 M-0.0348994967025009,0.9993908270190958L-0.03140954703225081,0.8994517443171862 M-0.052335956242943564,0.9986295347545738L-0.04710236061864921,0.8987665812791165 M-0.06975647374412483,0.9975640502598243L-0.06278082636971236,0.8978076452338419 M-0.1045284632676535,0.9945218953682733L-0.09407561694088815,0.895069705831446 M-0.12186934340514775,0.992546151641322L-0.10968240906463297,0.8932915364771898 M-0.13917310096006552,0.9902680687415703L-0.12525579086405897,0.8912412618674133 M-0.15643446504023073,0.9876883405951378L-0.14079101853620765,0.888919506535624 M-0.19080899537654472,0.981627183447664L-0.17172809583889026,0.8834644651028976 M-0.20791169081775907,0.9781476007338057L-0.18712052173598318,0.8803328406604252 M-0.22495105434386498,0.9743700647852352L-0.2024559489094785,0.8769330583067118 M-0.2419218955996675,0.9702957262759966L-0.21772970603970077,0.873266153648397 M-0.2756373558169986,0.961261695938319L-0.24807362023529875,0.8651355263444871 M-0.29237170472273677,0.9563047559630354L-0.2631345342504631,0.8606742803667319 M-0.30901699437494773,0.9510565162951535L-0.27811529493745296,0.8559508646656382 M-0.32556815445715676,0.9455185755993167L-0.2930113390114411,0.8509667180393851 M-0.35836794954530043,0.9335804264972017L-0.3225311545907704,0.8402223838474816 M-0.374606593415912,0.9271838545667874L-0.3371459340743208,0.8344654691101087 M-0.39073112848927355,0.9205048534524404L-0.3516580156403462,0.8284543681071963 M-0.4067366430757998,0.9135454576426011L-0.36606297876821986,0.822190911878341 M-0.43837114678907707,0.8987940462991671L-0.39453403211016935,0.8089146416692504 M-0.45399049973954625,0.8910065241883681L-0.40859144976559164,0.8019058717695313 M-0.4694715627858905,0.8829475928589271L-0.42252440650730144,0.7946528335730344 M-0.48480962024633734,0.8746197071393956L-0.43632865822170364,0.7871577364254561 M-0.5150380749100542,0.8571673007021123L-0.46353426741904874,0.7714505706319011 M-0.5299192642332048,0.8480480961564261L-0.47692733780988433,0.7632432865407834 M-0.5446390350150271,0.838670567945424L-0.4901751315135244,0.7548035111508816 M-0.5591929034707467,0.8290375725550418L-0.503273613123672,0.7461338152995377 M-0.587785252292473,0.8090169943749475L-0.5290067270632257,0.7281152949374528 M-0.601815023152048,0.798635510047293L-0.5416335208368432,0.7187719590425637 M-0.6156614753256578,0.7880107536067222L-0.5540953277930921,0.7092096782460501 M-0.6293203910498373,0.7771459614569711L-0.5663883519448536,0.699431365311274 M-0.6560590289905074,0.7547095802227719L-0.5904531260914566,0.6792386222004947 M-0.6691306063588582,0.7431448254773942L-0.6022175457229725,0.6688303429296548 M-0.6819983600624984,0.7313537016191706L-0.6137985240562486,0.6582183314572535 M-0.6946583704589974,0.7193398003386511L-0.6251925334130977,0.647405820304786 M-0.7193398003386509,0.6946583704589975L-0.6474058203047858,0.6251925334130978 M-0.7313537016191705,0.6819983600624986L-0.6582183314572534,0.6137985240562488 M-0.743144825477394,0.6691306063588585L-0.6688303429296546,0.6022175457229726 M-0.7547095802227717,0.6560590289905077L-0.6792386222004946,0.590453126091457 M-0.7771459614569711,0.6293203910498371L-0.699431365311274,0.5663883519448534 M-0.7880107536067221,0.6156614753256581L-0.70920967824605,0.5540953277930922 M-0.7986355100472928,0.6018150231520483L-0.7187719590425635,0.5416335208368435 M-0.8090169943749473,0.5877852522924732L-0.7281152949374526,0.5290067270632259 M-0.8290375725550414,0.5591929034707472L-0.7461338152995373,0.5032736131236726 M-0.838670567945424,0.544639035015027L-0.7548035111508816,0.49017513151352426 M-0.848048096156426,0.529919264233205L-0.7632432865407833,0.4769273378098845 M-0.8571673007021121,0.5150380749100545L-0.7714505706319009,0.4635342674190491 M-0.8746197071393955,0.4848096202463376L-0.787157736425456,0.43632865822170386 M-0.882947592858927,0.46947156278589075L-0.7946528335730343,0.42252440650730166 M-0.8910065241883678,0.4539904997395469L-0.801905871769531,0.40859144976559225 M-0.8987940462991668,0.43837114678907774L-0.8089146416692502,0.39453403211016996 M-0.913545457642601,0.4067366430758001L-0.8221909118783409,0.3660629787682201 M-0.9205048534524403,0.3907311284892738L-0.8284543681071963,0.35165801564034643 M-0.9271838545667873,0.3746065934159123L-0.8344654691101085,0.3371459340743211 M-0.9335804264972016,0.3583679495453007L-0.8402223838474815,0.32253115459077064 M-0.9455185755993168,0.32556815445715664L-0.8509667180393852,0.293011339011441 M-0.9510565162951535,0.30901699437494756L-0.8559508646656382,0.2781152949374528 M-0.9563047559630353,0.2923717047227371L-0.8606742803667318,0.2631345342504634 M-0.9612616959383189,0.2756373558169989L-0.865135526344487,0.248073620235299 M-0.9702957262759965,0.24192189559966779L-0.8732661536483969,0.21772970603970102 M-0.9743700647852351,0.22495105434386525L-0.8769330583067116,0.20245594890947874 M-0.9781476007338056,0.2079116908177598L-0.880332840660425,0.1871205217359838 M-0.981627183447664,0.1908089953765446L-0.8834644651028976,0.17172809583889015 M-0.9876883405951377,0.15643446504023104L-0.8889195065356239,0.14079101853620793 M-0.9902680687415703,0.13917310096006583L-0.8912412618674133,0.12525579086405925 M-0.992546151641322,0.12186934340514805L-0.8932915364771898,0.10968240906463324 M-0.9945218953682733,0.10452846326765423L-0.895069705831446,0.09407561694088881 M-0.9975640502598242,0.06975647374412558L-0.8978076452338418,0.06278082636971302 M-0.9986295347545739,0.052335956242943425L-0.8987665812791166,0.047102360618649086 M-0.9993908270190958,0.03489949670250076L-0.8994517443171862,0.031409547032250684 M-0.9998476951563913,0.017452406437283498L-0.8998629256407522,0.015707165793555147 M-0.9998476951563913,-0.01745240643728313L-0.8998629256407522,-0.015707165793554818 M-0.9993908270190958,-0.03489949670250039L-0.8994517443171862,-0.03140954703225036 M-0.9986295347545739,-0.05233595624294306L-0.8987665812791166,-0.04710236061864875 M-0.9975640502598243,-0.06975647374412522L-0.8978076452338419,-0.0627808263697127 M-0.9945218953682733,-0.10452846326765387L-0.895069705831446,-0.09407561694088849 M-0.992546151641322,-0.12186934340514768L-0.8932915364771898,-0.10968240906463292 M-0.9902680687415704,-0.13917310096006547L-0.8912412618674134,-0.1252557908640589 M-0.9876883405951378,-0.15643446504023067L-0.888919506535624,-0.14079101853620762 M-0.9816271834476641,-0.19080899537654425L-0.8834644651028977,-0.17172809583888982 M-0.9781476007338056,-0.20791169081775943L-0.880332840660425,-0.18712052173598348 M-0.9743700647852352,-0.22495105434386492L-0.8769330583067118,-0.20245594890947843 M-0.9702957262759966,-0.24192189559966745L-0.873266153648397,-0.2177297060397007 M-0.961261695938319,-0.2756373558169985L-0.8651355263444871,-0.24807362023529866 M-0.9563047559630354,-0.2923717047227367L-0.8606742803667319,-0.26313453425046307 M-0.9510565162951536,-0.30901699437494723L-0.8559508646656383,-0.2781152949374525 M-0.945518575599317,-0.3255681544571563L-0.8509667180393853,-0.29301133901144066 M-0.9335804264972017,-0.3583679495453004L-0.8402223838474816,-0.32253115459077036 M-0.9271838545667874,-0.37460659341591196L-0.8344654691101087,-0.33714593407432075 M-0.9205048534524405,-0.3907311284892735L-0.8284543681071964,-0.35165801564034616 M-0.9135454576426011,-0.40673664307579976L-0.822190911878341,-0.3660629787682198 M-0.898794046299167,-0.4383711467890774L-0.8089146416692503,-0.3945340321101697 M-0.891006524188368,-0.45399049973954664L-0.8019058717695312,-0.408591449765592 M-0.8829475928589271,-0.4694715627858904L-0.7946528335730344,-0.4225244065073014 M-0.8746197071393956,-0.4848096202463373L-0.7871577364254561,-0.4363286582217036 M-0.8571673007021123,-0.5150380749100542L-0.7714505706319011,-0.46353426741904874 M-0.8480480961564261,-0.5299192642332047L-0.7632432865407834,-0.4769273378098842 M-0.8386705679454243,-0.5446390350150266L-0.7548035111508818,-0.490175131513524 M-0.8290375725550416,-0.559192903470747L-0.7461338152995375,-0.5032736131236724 M-0.8090169943749476,-0.5877852522924729L-0.7281152949374529,-0.5290067270632256 M-0.798635510047293,-0.6018150231520479L-0.7187719590425637,-0.5416335208368431 M-0.7880107536067223,-0.6156614753256578L-0.7092096782460501,-0.5540953277930921 M-0.7771459614569713,-0.6293203910498368L-0.6994313653112743,-0.5663883519448532 M-0.7547095802227721,-0.656059028990507L-0.6792386222004949,-0.5904531260914564 M-0.743144825477394,-0.6691306063588585L-0.6688303429296546,-0.6022175457229726 M-0.7313537016191703,-0.6819983600624986L-0.6582183314572533,-0.6137985240562488 M-0.7193398003386511,-0.6946583704589973L-0.647405820304786,-0.6251925334130976 M-0.6946583704589976,-0.7193398003386509L-0.6251925334130979,-0.6474058203047858 M-0.6819983600624989,-0.7313537016191701L-0.613798524056249,-0.6582183314572532 M-0.6691306063588588,-0.7431448254773937L-0.6022175457229729,-0.6688303429296544 M-0.6560590289905074,-0.7547095802227719L-0.5904531260914566,-0.6792386222004947 M-0.6293203910498372,-0.7771459614569711L-0.5663883519448535,-0.699431365311274 M-0.6156614753256582,-0.788010753606722L-0.5540953277930923,-0.7092096782460499 M-0.6018150231520483,-0.7986355100472928L-0.5416335208368435,-0.7187719590425635 M-0.5877852522924734,-0.8090169943749473L-0.529006727063226,-0.7281152949374526 M-0.5591929034707473,-0.8290375725550414L-0.5032736131236726,-0.7461338152995373 M-0.544639035015027,-0.838670567945424L-0.49017513151352426,-0.7548035111508816 M-0.529919264233205,-0.8480480961564258L-0.4769273378098845,-0.7632432865407833 M-0.5150380749100545,-0.8571673007021121L-0.4635342674190491,-0.7714505706319009 M-0.48480962024633767,-0.8746197071393954L-0.4363286582217039,-0.7871577364254558 M-0.4694715627858908,-0.882947592858927L-0.4225244065073017,-0.7946528335730343 M-0.45399049973954697,-0.8910065241883678L-0.4085914497655923,-0.801905871769531 M-0.4383711467890778,-0.8987940462991668L-0.39453403211017,-0.8089146416692502 M-0.40673664307580015,-0.913545457642601L-0.36606297876822014,-0.8221909118783409 M-0.3907311284892739,-0.9205048534524403L-0.3516580156403465,-0.8284543681071963 M-0.37460659341591235,-0.9271838545667873L-0.33714593407432114,-0.8344654691101085 M-0.35836794954530077,-0.9335804264972015L-0.3225311545907707,-0.8402223838474814 M-0.3255681544571567,-0.9455185755993168L-0.29301133901144105,-0.8509667180393852 M-0.3090169943749476,-0.9510565162951535L-0.27811529493745285,-0.8559508646656382 M-0.29237170472273716,-0.9563047559630353L-0.26313453425046346,-0.8606742803667318 M-0.27563735581699894,-0.9612616959383189L-0.24807362023529905,-0.865135526344487 M-0.24192189559966787,-0.9702957262759965L-0.2177297060397011,-0.8732661536483969 M-0.22495105434386534,-0.9743700647852351L-0.2024559489094788,-0.8769330583067116 M-0.20791169081775987,-0.9781476007338056L-0.1871205217359839,-0.880332840660425 M-0.19080899537654467,-0.981627183447664L-0.1717280958388902,-0.8834644651028976 M-0.15643446504023112,-0.9876883405951377L-0.140791018536208,-0.8889195065356239 M-0.13917310096006588,-0.9902680687415703L-0.1252557908640593,-0.8912412618674133 M-0.12186934340514811,-0.992546151641322L-0.10968240906463331,-0.8932915364771898 M-0.1045284632676543,-0.9945218953682733L-0.09407561694088888,-0.895069705831446 M-0.06975647374412564,-0.9975640502598242L-0.06278082636971308,-0.8978076452338418 M-0.05233595624294348,-0.9986295347545739L-0.047102360618649135,-0.8987665812791166 M-0.034899496702500823,-0.9993908270190958L-0.03140954703225074,-0.8994517443171862 M-0.01745240643728356,-0.9998476951563913L-0.015707165793555206,-0.8998629256407522" id="compass-scale-1">
  </path>
  <path d=" M0.08715574274765817,-0.9961946980917455L0.07408238133550944,-0.8467654933779837 M0.25881904510252074,-0.9659258262890683L0.21999618833714263,-0.8210369523457081 M0.42261826174069944,-0.9063077870366499L0.3592255224795945,-0.7703616189811524 M0.573576436351046,-0.8191520442889918L0.48753997089838913,-0.696279237645643 M0.7071067811865475,-0.7071067811865476L0.6010407640085653,-0.6010407640085654 M0.8191520442889918,-0.573576436351046L0.696279237645643,-0.48753997089838913 M0.9063077870366499,-0.42261826174069944L0.7703616189811524,-0.3592255224795945 M0.9659258262890683,-0.25881904510252074L0.8210369523457081,-0.21999618833714263 M0.9961946980917455,-0.08715574274765836L0.8467654933779837,-0.07408238133550961 M0.9961946980917455,0.08715574274765824L0.8467654933779837,0.0740823813355095 M0.9659258262890683,0.25881904510252085L0.8210369523457081,0.2199961883371427 M0.90630778703665,0.42261826174069933L0.7703616189811525,0.35922552247959444 M0.819152044288992,0.5735764363510458L0.6962792376456431,0.48753997089838896 M0.7071067811865476,0.7071067811865475L0.6010407640085654,0.6010407640085653 M0.5735764363510459,0.8191520442889919L0.487539970898389,0.6962792376456431 M0.4226182617406995,0.9063077870366499L0.35922552247959455,0.7703616189811524 M0.258819045102521,0.9659258262890682L0.21999618833714285,0.821036952345708 M0.0871557427476582,0.9961946980917455L0.07408238133550946,0.8467654933779837 M-0.08715574274765794,0.9961946980917455L-0.07408238133550925,0.8467654933779837 M-0.25881904510252035,0.9659258262890684L-0.2199961883371423,0.8210369523457082 M-0.4226182617406993,0.90630778703665L-0.3592255224795944,0.7703616189811525 M-0.5735764363510458,0.819152044288992L-0.48753997089838896,0.6962792376456431 M-0.7071067811865475,0.7071067811865477L-0.6010407640085653,0.6010407640085655 M-0.8191520442889916,0.5735764363510464L-0.6962792376456428,0.4875399708983894 M-0.90630778703665,0.42261826174069916L-0.7703616189811525,0.3592255224795943 M-0.9659258262890683,0.25881904510252063L-0.8210369523457081,0.21999618833714252 M-0.9961946980917455,0.08715574274765825L-0.8467654933779837,0.07408238133550951 M-0.9961946980917455,-0.08715574274765789L-0.8467654933779837,-0.0740823813355092 M-0.9659258262890684,-0.2588190451025203L-0.8210369523457082,-0.21999618833714224 M-0.9063077870366503,-0.42261826174069883L-0.7703616189811527,-0.359225522479594 M-0.8191520442889918,-0.573576436351046L-0.696279237645643,-0.48753997089838913 M-0.7071067811865477,-0.7071067811865474L-0.6010407640085655,-0.6010407640085652 M-0.5735764363510465,-0.8191520442889916L-0.4875399708983895,-0.6962792376456428 M-0.4226182617406992,-0.90630778703665L-0.35922552247959433,-0.7703616189811525 M-0.2588190451025207,-0.9659258262890683L-0.21999618833714257,-0.8210369523457081 M-0.08715574274765832,-0.9961946980917455L-0.07408238133550957,-0.8467654933779837" id="compass-scale-5">
  </path>
  <path d="M0.0,-1.0L0.0,-0.8 M0.17364817766693033,-0.984807753012208L0.13891854213354426,-0.7878462024097664 M0.3420201433256687,-0.9396926207859084L0.273616114660535,-0.7517540966287268 M0.49999999999999994,-0.8660254037844387L0.39999999999999997,-0.692820323027551 M0.6427876096865393,-0.766044443118978L0.5142300877492314,-0.6128355544951825 M0.766044443118978,-0.6427876096865394L0.6128355544951825,-0.5142300877492315 M0.8660254037844386,-0.5000000000000001L0.6928203230275509,-0.40000000000000013 M0.9396926207859083,-0.3420201433256688L0.7517540966287267,-0.2736161146605351 M0.984807753012208,-0.17364817766693041L0.7878462024097664,-0.13891854213354435 M1.0,-6.123233995736766E-17L0.8,-4.898587196589413E-17 M0.984807753012208,0.1736481776669303L0.7878462024097664,0.13891854213354424 M0.9396926207859084,0.3420201433256687L0.7517540966287268,0.273616114660535 M0.8660254037844387,0.4999999999999998L0.692820323027551,0.39999999999999986 M0.766044443118978,0.6427876096865394L0.6128355544951825,0.5142300877492315 M0.6427876096865395,0.7660444431189779L0.5142300877492316,0.6128355544951823 M0.49999999999999994,0.8660254037844387L0.39999999999999997,0.692820323027551 M0.3420201433256689,0.9396926207859083L0.2736161146605351,0.7517540966287267 M0.17364817766693072,0.984807753012208L0.13891854213354457,0.7878462024097664 M1.2246467991473532E-16,1.0L9.797174393178826E-17,0.8 M-0.17364817766693047,0.984807753012208L-0.13891854213354438,0.7878462024097664 M-0.34202014332566866,0.9396926207859084L-0.2736161146605349,0.7517540966287268 M-0.5000000000000001,0.8660254037844386L-0.40000000000000013,0.6928203230275509 M-0.6427876096865393,0.7660444431189781L-0.5142300877492314,0.6128355544951826 M-0.7660444431189779,0.6427876096865395L-0.6128355544951823,0.5142300877492316 M-0.8660254037844385,0.5000000000000004L-0.6928203230275508,0.40000000000000036 M-0.9396926207859082,0.3420201433256694L-0.7517540966287266,0.27361611466053554 M-0.984807753012208,0.17364817766693033L-0.7878462024097664,0.13891854213354426 M-1.0,1.8369701987210297E-16L-0.8,1.4695761589768238E-16 M-0.9848077530122081,-0.17364817766692997L-0.7878462024097665,-0.138918542133544 M-0.9396926207859083,-0.342020143325669L-0.7517540966287267,-0.2736161146605352 M-0.8660254037844386,-0.5000000000000001L-0.6928203230275509,-0.40000000000000013 M-0.7660444431189781,-0.6427876096865393L-0.6128355544951826,-0.5142300877492314 M-0.6427876096865396,-0.7660444431189778L-0.5142300877492317,-0.6128355544951822 M-0.5000000000000004,-0.8660254037844384L-0.40000000000000036,-0.6928203230275507 M-0.34202014332566943,-0.9396926207859081L-0.27361611466053554,-0.7517540966287265 M-0.1736481776669304,-0.984807753012208L-0.13891854213354432,-0.7878462024097664" id="compass-scale-10">
  </path>
  <g id="compass-scale">
   <text rotate="0" text-anchor="middle" transform="rotate(0)" x="0.0" y="-1.0">0
   </text>
   <text rotate="357 3" text-anchor="middle" transform="rotate(30)" x="-0.05233595624294348 0.05233595624294383" y="-0.9986295347545739 -0.9986295347545738">30
   </text>
   <text rotate="357 3" text-anchor="middle" transform="rotate(60)" x="-0.05233595624294348 0.05233595624294383" y="-0.9986295347545739 -0.9986295347545738">60
   </text>
   <text rotate="357 3" text-anchor="middle" transform="rotate(90)" x="-0.05233595624294348 0.05233595624294383" y="-0.9986295347545739 -0.9986295347545738">90
   </text>
   <text rotate="355 0 5" text-anchor="middle" transform="rotate(120)" x="-0.08715574274765832 0.0 0.08715574274765817" y="-0.9961946980917455 -1.0 -0.9961946980917455">120
   </text>
   <text rotate="355 0 5" text-anchor="middle" transform="rotate(150)" x="-0.08715574274765832 0.0 0.08715574274765817" y="-0.9961946980917455 -1.0 -0.9961946980917455">150
   </text>
   <text rotate="355 0 5" text-anchor="middle" transform="rotate(180)" x="-0.08715574274765832 0.0 0.08715574274765817" y="-0.9961946980917455 -1.0 -0.9961946980917455">180
   </text>
   <text rotate="355 0 5" text-anchor="middle" transform="rotate(210)" x="-0.08715574274765832 0.0 0.08715574274765817" y="-0.9961946980917455 -1.0 -0.9961946980917455">210
   </text>
   <text rotate="355 0 5" text-anchor="middle" transform="rotate(240)" x="-0.08715574274765832 0.0 0.08715574274765817" y="-0.9961946980917455 -1.0 -0.9961946980917455">240
   </text>
   <text rotate="355 0 5" text-anchor="middle" transform="rotate(270)" x="-0.08715574274765832 0.0 0.08715574274765817" y="-0.9961946980917455 -1.0 -0.9961946980917455">270
   </text>
   <text rotate="355 0 5" text-anchor="middle" transform="rotate(300)" x="-0.08715574274765832 0.0 0.08715574274765817" y="-0.9961946980917455 -1.0 -0.9961946980917455">300
   </text>
   <text rotate="355 0 5" text-anchor="middle" transform="rotate(330)" x="-0.08715574274765832 0.0 0.08715574274765817" y="-0.9961946980917455 -1.0 -0.9961946980917455">330
   </text>
  </g>
 </defs>
</svg>